# ProBuilder 4.1.0
# https://unity3d.com/unity/features/worldbuilding/probuilder
# 05.08.2020 14:53:58

mtllib ./hummer.mtl
o hummer

g Cube
v -555.9365 31.08221 170.9523
v -555.9365 31.36779 170.9523
v -555.8862 31.36779 170.9523
v -555.8862 31.08221 170.9523
v -555.9365 31.36779 170.9127
v -555.8862 31.36779 170.9127
v -555.9365 31.08221 170.9127
v -555.8862 31.08221 170.9127

vt 0 0
vt 0 1
vt 1 1
vt 1 0

vn 0 0 0.039551
vn 0 0.28558 0
vn 0 0 -0.039551
vn 0 -0.28558 0
vn 0.050354 0 0
vn -0.050354 0 0

usemtl Default-Material
f 4/4/1 3/3/1 2/2/1 1/1/1
f 3/4/2 6/3/2 5/2/2 2/1/2
f 6/4/3 8/3/3 7/2/3 5/1/3
f 8/4/4 4/3/4 1/2/4 7/1/4
f 8/4/5 6/3/5 3/2/5 4/1/5
f 1/4/6 2/3/6 5/2/6 7/1/6

g Cube (1)
v -555.8572 31.31472 170.9523
v -555.9908 31.31472 170.9523
v -555.9908 31.36508 170.9523
v -555.8572 31.36508 170.9523
v -555.9908 31.31472 170.9127
v -555.9908 31.36508 170.9127
v -555.8572 31.31472 170.9127
v -555.8572 31.36508 170.9127

vt 0 0
vt 0 1
vt 1 1
vt 1 0

vn 0 0 0.039551
vn -0.1337142 7.969989E-09 0
vn 0 0 -0.039551
vn 0.1337142 -7.969989E-09 0
vn 3.001332E-09 0.050354 0
vn -3.001332E-09 -0.050354 0

usemtl Default-Material
f 12/8/7 11/7/7 10/6/7 9/5/7
f 11/8/8 14/7/8 13/6/8 10/5/8
f 14/8/9 16/7/9 15/6/9 13/5/9
f 16/8/10 12/7/10 9/6/10 15/5/10
f 16/8/11 14/7/11 11/6/11 12/5/11
f 9/8/12 10/7/12 13/6/12 15/5/12

