# This file uses centimeters as units for non-parametric coordinates.

v 511.151886 481.431091 127.179199
v 511.151886 502.444885 127.179199
v 259.592834 502.444885 127.179199
v 259.592834 481.431091 127.179199
v 511.151886 502.444885 194.393494
v 259.592834 502.444885 194.393494
v 511.151886 481.431091 194.393494
v 259.592834 481.431091 194.393494
v 136.831268 426.671051 194.393494
v 136.831268 405.657257 194.393494
v 136.831268 426.671051 127.179199
v 136.831268 405.657257 127.179199
v 511.151886 502.444885 185.991760
v 511.151886 481.431091 185.991760
v 259.592834 481.431091 185.991760
v 136.831268 405.657257 185.991760
v 136.831268 426.671051 185.991760
v 259.592834 502.444885 185.991760
v 259.592834 502.444885 135.580994
v 136.831268 426.671051 135.580994
v 136.831268 405.657257 135.580994
v 259.592834 481.431091 135.580994
v 511.151886 481.431091 135.580994
v 511.151886 502.444885 135.580994
v 362.344574 -100.983994 -532.101318
v 362.344574 -89.184738 -542.524963
v 362.344666 502.444885 127.179199
v 362.344666 490.645630 137.602661
v 465.384705 -89.184738 -542.524963
v 465.384827 502.444885 127.179199
v 465.384705 -100.983994 -532.101318
v 465.384827 490.645630 137.602661
v 362.344635 194.830826 -197.249344
v 465.384766 194.830826 -197.249344
v 465.384766 206.630081 -207.672882
v 362.344635 206.630081 -207.672882
v 465.384827 354.537476 -40.246857
v 465.384827 342.738220 -29.823364
v 362.344666 342.738220 -29.823364
v 362.344666 354.537476 -40.246857
v 362.344574 46.923409 -364.675323
v 465.384705 46.923409 -364.675323
v 465.384705 58.722672 -375.098938
v 362.344574 58.722672 -375.098938
v 375.224701 502.444885 127.179199
v 375.224701 490.645630 137.602661
v 375.224701 342.738220 -29.823364
v 375.224640 194.830826 -197.249344
v 375.224579 46.923409 -364.675323
v 375.224579 -100.983994 -532.101318
v 375.224579 -89.184738 -542.524963
v 375.224579 58.722672 -375.098938
v 375.224640 206.630081 -207.672882
v 375.224701 354.537476 -40.246857
v 452.504700 -89.184738 -542.524963
v 452.504700 -100.983994 -532.101318
v 452.504700 46.923409 -364.675323
v 452.504761 194.830826 -197.249344
v 452.504822 342.738220 -29.823364
v 452.504822 490.645630 137.602661
v 452.504822 502.444885 127.179199
v 452.504822 354.537476 -40.246857
v 452.504761 206.630081 -207.672882
v 452.504700 58.722672 -375.098938
vt 0.650282 0.651536
vt 0.500736 0.649552
vt 0.500736 0.748836
vt 0.749566 0.651535
vt 0.750982 0.649552
vt 0.750982 0.748836
vt 0.500510 0.579693
vt 0.500510 0.548653
vt 0.599792 0.548653
vt 0.599792 0.579693
vt 0.500217 0.600616
vt 0.500217 0.501331
vt 0.749504 0.501331
vt 0.749504 0.600616
vt 0.500215 0.699687
vt 0.750982 0.649552
vt 0.749506 0.600403
vt 0.749506 0.699687
vt 0.500736 0.748836
vt 0.500736 0.649552
vt 0.500494 0.578097
vt 0.730029 0.549584
vt 0.749443 0.547056
vt 0.749443 0.578097
vt 0.500635 0.575998
vt 0.516939 0.549584
vt 0.500450 0.581562
vt 0.713732 0.549585
vt 0.749419 0.550523
vt 0.749419 0.581562
vt 0.516931 0.575998
vt 0.500629 0.549585
vt 0.730035 0.575997
vt 0.500450 0.550523
vt 0.713725 0.575998
vt 0.500494 0.547056
vt 0.750982 0.748836
vt 0.500215 0.600403
vt 0.749566 0.620495
vt 0.650282 0.620495
vt 0.236085 0.899931
vt 0.013615 0.751744
vt 0.062551 0.899934
vt 0.587381 0.579693
vt 0.500215 0.687276
vt 0.750982 0.736425
vt 0.500736 0.736425
vt 0.662693 0.651535
vt 0.087864 0.501647
vt 0.662693 0.620495
vt 0.236085 0.501128
vt 0.750982 0.661963
vt 0.161621 0.501128
vt 0.013402 0.751892
vt 0.500736 0.736425
vt 0.737155 0.620495
vt 0.500737 0.661963
vt 0.737155 0.651535
vt 0.500215 0.612813
vt 0.750982 0.661963
vt 0.749506 0.612813
vt 0.512920 0.579693
vt 0.749504 0.588206
vt 0.512920 0.548653
vt 0.088077 0.751744
vt 0.161621 0.899931
vt 0.750982 0.736425
vt 0.500217 0.588206
vt 0.137014 0.899934
vt 0.088077 0.720704
vt 0.087864 0.751892
vt 0.137014 0.501125
vt 0.235851 0.801987
vt 0.087864 0.501647
vt 0.013402 0.501647
vt 0.235851 0.770947
vt 0.500217 0.513742
vt 0.087864 0.751892
vt 0.587381 0.548653
vt 0.749504 0.513742
vt 0.500736 0.661963
vt 0.161388 0.770947
vt 0.013402 0.501647
vt 0.161388 0.801987
vt 0.062551 0.501125
vt 0.013402 0.751892
vt 0.749506 0.687276
vt 0.013615 0.720704
vt 0.749749 0.613065
vt 0.749749 0.636321
vt 0.500514 0.636321
vt 0.500514 0.613065
vt 0.098353 0.852339
vt 0.098398 0.501219
vt 0.158623 0.501235
vt 0.158578 0.852355
vt 0.500514 0.636321
vt 0.500514 0.613066
vt 0.749749 0.613065
vt 0.749749 0.636321
vt 0.158623 0.501235
vt 0.158578 0.852355
vt 0.098353 0.852339
vt 0.098398 0.501219
vt 0.145614 0.524356
vt 0.145614 0.501100
vt 0.031462 0.501100
vt 0.031461 0.524356
vt 0.239269 0.501219
vt 0.239314 0.852339
vt 0.179089 0.852355
vt 0.179043 0.501235
vt 0.500514 0.636321
vt 0.500514 0.613065
vt 0.749749 0.613065
vt 0.749749 0.636321
vt 0.179089 0.852355
vt 0.179043 0.501235
vt 0.239269 0.501219
vt 0.239314 0.852339
vt 0.749749 0.613066
vt 0.749749 0.636322
vt 0.500514 0.636321
vt 0.500514 0.613065
vt 0.500514 0.636321
vt 0.500514 0.613065
vt 0.749749 0.613065
vt 0.749749 0.636321
vt 0.179089 0.852355
vt 0.179043 0.501235
vt 0.239269 0.501219
vt 0.239314 0.852339
vt 0.749749 0.613066
vt 0.749749 0.636322
vt 0.500514 0.636320
vt 0.500514 0.613065
vt 0.239314 0.501235
vt 0.239269 0.852355
vt 0.179043 0.852339
vt 0.179089 0.501219
vt 0.017662 0.852339
vt 0.017707 0.501219
vt 0.077933 0.501235
vt 0.077887 0.852355
vt 0.500514 0.613065
vt 0.749749 0.613065
vt 0.749749 0.636321
vt 0.500514 0.636321
vt 0.077887 0.501219
vt 0.077933 0.852339
vt 0.017707 0.852355
vt 0.017662 0.501235
vt 0.749749 0.613065
vt 0.749749 0.636321
vt 0.500514 0.636321
vt 0.500514 0.613065
vt 0.500945 0.576565
vt 0.749328 0.576520
vt 0.749330 0.586557
vt 0.500948 0.586603
vt 0.500930 0.657210
vt 0.749312 0.657256
vt 0.749309 0.667293
vt 0.500927 0.667248
vt 0.749312 0.516294
vt 0.500930 0.516340
vt 0.500927 0.506302
vt 0.749309 0.506257
vt 0.500930 0.737901
vt 0.749312 0.737946
vt 0.749309 0.747984
vt 0.500927 0.747939
vt 0.652902 0.501172
vt 0.652902 0.524428
vt 0.633877 0.524428
vt 0.633877 0.501172
vt 0.749309 0.667638
vt 0.749312 0.677676
vt 0.500930 0.677721
vt 0.500927 0.667684
vt 0.500948 0.586603
vt 0.500945 0.576565
vt 0.749328 0.576520
vt 0.749330 0.586557
vt 0.749330 0.586993
vt 0.749328 0.597030
vt 0.500945 0.596985
vt 0.500948 0.586948
vt 0.749330 0.506302
vt 0.749328 0.516340
vt 0.500945 0.516294
vt 0.500948 0.506257
vt 0.519725 0.501172
vt 0.519725 0.524428
vt 0.500699 0.524428
vt 0.500699 0.501172
vt 0.749330 0.667684
vt 0.749328 0.677721
vt 0.500946 0.677676
vt 0.500948 0.667638
vt 0.500948 0.586603
vt 0.500945 0.576565
vt 0.749328 0.576520
vt 0.749330 0.586557
vt 0.749330 0.586993
vt 0.749328 0.597030
vt 0.500945 0.596985
vt 0.500948 0.586948
vt 0.749309 0.506257
vt 0.749312 0.516294
vt 0.500930 0.516340
vt 0.500927 0.506302
vt 0.500930 0.576520
vt 0.749312 0.576565
vt 0.749309 0.586603
vt 0.500927 0.586557
vt 0.500930 0.657210
vt 0.749312 0.657256
vt 0.749309 0.667293
vt 0.500927 0.667248
vt 0.749312 0.516294
vt 0.500930 0.516340
vt 0.500927 0.506302
vt 0.749309 0.506257
vt 0.500945 0.737947
vt 0.749328 0.737901
vt 0.749330 0.747939
vt 0.500948 0.747984
vn 0.000000 0.000000 -1.000000
vn 0.000000 0.000000 -1.000000
vn 0.000000 0.000000 -1.000000
vn 0.000000 0.000000 -1.000000
vn -0.198406 0.980120 0.000000
vn 0.000000 1.000000 0.000000
vn 0.000000 1.000000 0.000000
vn -0.198406 0.980120 0.000000
vn 0.000000 0.000000 1.000000
vn 0.000000 0.000000 1.000000
vn 0.000000 0.000000 1.000000
vn 0.000000 0.000000 1.000000
vn 0.000000 -1.000000 0.000000
vn 0.198406 -0.980120 0.000000
vn 0.198406 -0.980120 0.000000
vn 0.000000 -1.000000 0.000000
vn -1.000000 0.000000 0.000000
vn -1.000000 0.000000 0.000000
vn -1.000000 0.000000 0.000000
vn -1.000000 0.000000 0.000000
vn 1.000000 0.000000 0.000000
vn 1.000000 0.000000 0.000000
vn 1.000000 0.000000 0.000000
vn 1.000000 0.000000 0.000000
vn 0.000000 0.000000 1.000000
vn 0.000000 0.000000 1.000000
vn 0.000000 0.000000 1.000000
vn 0.000000 0.000000 1.000000
vn -0.525245 0.850951 0.000000
vn -0.198406 0.980120 0.000000
vn -0.198406 0.980120 0.000000
vn -0.525245 0.850951 0.000000
vn 0.000000 0.000000 -1.000000
vn 0.000000 0.000000 -1.000000
vn 0.000000 0.000000 -1.000000
vn 0.000000 0.000000 -1.000000
vn 0.198406 -0.980120 0.000000
vn 0.525245 -0.850951 0.000000
vn 0.525245 -0.850951 0.000000
vn 0.198406 -0.980120 0.000000
vn 1.000000 0.000000 0.000000
vn 1.000000 0.000000 0.000000
vn 1.000000 0.000000 0.000000
vn 1.000000 0.000000 0.000000
vn 0.198406 -0.980120 0.000000
vn 0.198406 -0.980120 0.000000
vn 0.000000 -1.000000 0.000000
vn 0.000000 -1.000000 0.000000
vn 0.525245 -0.850951 0.000000
vn 0.198406 -0.980120 0.000000
vn 0.198406 -0.980120 0.000000
vn 0.525245 -0.850951 0.000000
vn -1.000000 0.000000 0.000000
vn -1.000000 0.000000 0.000000
vn -1.000000 0.000000 0.000000
vn -1.000000 0.000000 0.000000
vn -0.198406 0.980120 0.000000
vn -0.198406 0.980120 0.000000
vn -0.525245 0.850951 0.000000
vn -0.525245 0.850951 0.000000
vn 0.000000 1.000000 0.000000
vn -0.198406 0.980120 0.000000
vn -0.198406 0.980120 0.000000
vn 0.000000 1.000000 0.000000
vn -0.525245 0.850951 0.000000
vn -0.198406 0.980120 0.000000
vn -0.198406 0.980120 0.000000
vn -0.525245 0.850951 0.000000
vn -1.000000 0.000000 0.000000
vn -1.000000 0.000000 0.000000
vn -1.000000 0.000000 0.000000
vn -1.000000 0.000000 0.000000
vn 0.198406 -0.980120 0.000000
vn 0.198406 -0.980120 0.000000
vn 0.525245 -0.850951 0.000000
vn 0.525245 -0.850951 0.000000
vn 0.000000 -1.000000 0.000000
vn 0.198406 -0.980120 0.000000
vn 0.198406 -0.980120 0.000000
vn 0.000000 -1.000000 0.000000
vn 1.000000 0.000000 0.000000
vn 1.000000 0.000000 0.000000
vn 1.000000 0.000000 0.000000
vn 1.000000 0.000000 0.000000
vn -0.198406 0.980120 0.000000
vn -0.198406 0.980120 0.000000
vn 0.000000 1.000000 0.000000
vn 0.000000 1.000000 0.000000
vn -1.000000 0.000000 0.000000
vn -1.000000 0.000000 0.000000
vn -1.000000 0.000001 0.000000
vn -1.000000 0.000001 0.000000
vn 0.000000 0.749441 -0.662071
vn 0.000000 0.749441 -0.662071
vn 0.000000 0.749441 -0.662071
vn 0.000000 0.749441 -0.662071
vn 1.000000 0.000000 -0.000000
vn 1.000000 0.000000 -0.000000
vn 1.000000 0.000000 -0.000000
vn 1.000000 0.000000 -0.000000
vn 0.000000 -0.749441 0.662071
vn 0.000000 -0.749441 0.662071
vn 0.000000 -0.749441 0.662071
vn 0.000000 -0.749441 0.662071
vn 0.000000 -0.662069 -0.749443
vn 0.000000 -0.662069 -0.749443
vn 0.000000 -0.662069 -0.749443
vn 0.000000 -0.662069 -0.749443
vn 0.000000 -0.749441 0.662071
vn 0.000000 -0.749441 0.662071
vn 0.000000 -0.749441 0.662071
vn 0.000000 -0.749441 0.662071
vn 1.000000 0.000001 -0.000000
vn 1.000000 0.000001 -0.000000
vn 1.000000 0.000000 -0.000000
vn 1.000000 0.000000 -0.000000
vn 0.000000 0.749441 -0.662071
vn 0.000000 0.749441 -0.662071
vn 0.000000 0.749441 -0.662071
vn 0.000000 0.749441 -0.662071
vn -1.000000 0.000001 0.000000
vn -1.000000 0.000001 0.000000
vn -1.000000 0.000000 0.000000
vn -1.000000 -0.000000 0.000000
vn 1.000000 0.000000 -0.000000
vn 1.000000 0.000000 -0.000000
vn 1.000000 0.000000 -0.000000
vn 1.000000 0.000000 -0.000000
vn 0.000000 -0.749441 0.662071
vn 0.000000 -0.749441 0.662071
vn 0.000000 -0.749441 0.662071
vn 0.000000 -0.749441 0.662071
vn -1.000000 0.000000 0.000000
vn -1.000000 0.000000 0.000000
vn -1.000000 0.000000 0.000000
vn -1.000000 0.000000 0.000000
vn 0.000000 0.749441 -0.662071
vn 0.000000 0.749441 -0.662071
vn 0.000000 0.749441 -0.662071
vn 0.000000 0.749441 -0.662071
vn 0.000000 -0.749441 0.662071
vn 0.000000 -0.749441 0.662071
vn 0.000000 -0.749441 0.662071
vn 0.000000 -0.749441 0.662071
vn 1.000000 0.000000 -0.000000
vn 1.000000 0.000001 -0.000000
vn 1.000000 0.000001 -0.000000
vn 1.000000 0.000000 -0.000000
vn 0.000000 0.749441 -0.662071
vn 0.000000 0.749441 -0.662071
vn 0.000000 0.749441 -0.662071
vn 0.000000 0.749441 -0.662071
vn -1.000000 -0.000000 0.000000
vn -1.000000 0.000000 0.000000
vn -1.000000 0.000000 0.000000
vn -1.000000 0.000000 0.000000
vn 0.000000 -0.749441 0.662071
vn 0.000000 -0.749441 0.662071
vn 0.000000 -0.749441 0.662071
vn 0.000000 -0.749441 0.662071
vn 0.000000 -0.749441 0.662071
vn 0.000000 -0.749441 0.662071
vn 0.000000 -0.749441 0.662071
vn 0.000000 -0.749441 0.662071
vn 0.000000 -0.749441 0.662071
vn 0.000000 -0.749441 0.662071
vn 0.000000 -0.749441 0.662071
vn 0.000000 -0.749441 0.662071
vn 0.000000 -0.749441 0.662071
vn 0.000000 -0.749441 0.662071
vn 0.000000 -0.749441 0.662071
vn 0.000000 -0.749441 0.662071
vn -0.000000 -0.662071 -0.749441
vn -0.000000 -0.662071 -0.749441
vn 0.000000 -0.662069 -0.749443
vn 0.000000 -0.662069 -0.749443
vn 0.000000 0.749441 -0.662071
vn 0.000000 0.749441 -0.662071
vn 0.000000 0.749441 -0.662071
vn -0.000000 0.749441 -0.662071
vn 0.000000 0.749441 -0.662071
vn 0.000000 0.749441 -0.662071
vn 0.000000 0.749441 -0.662071
vn 0.000000 0.749441 -0.662071
vn 0.000000 0.749441 -0.662071
vn 0.000000 0.749441 -0.662071
vn 0.000000 0.749441 -0.662071
vn 0.000000 0.749441 -0.662071
vn -0.000000 0.749441 -0.662071
vn 0.000000 0.749441 -0.662071
vn 0.000000 0.749441 -0.662071
vn 0.000000 0.749441 -0.662071
vn 0.000000 -0.662069 -0.749443
vn 0.000000 -0.662069 -0.749443
vn -0.000000 -0.662071 -0.749441
vn -0.000000 -0.662071 -0.749441
vn 0.000000 -0.749441 0.662071
vn 0.000000 -0.749441 0.662071
vn 0.000000 -0.749441 0.662071
vn 0.000000 -0.749441 0.662071
vn 0.000000 -0.749441 0.662071
vn 0.000000 -0.749441 0.662071
vn 0.000000 -0.749441 0.662071
vn 0.000000 -0.749441 0.662071
vn 0.000000 -0.749441 0.662071
vn 0.000000 -0.749441 0.662071
vn 0.000000 -0.749441 0.662071
vn 0.000000 -0.749441 0.662071
vn 0.000000 -0.749441 0.662071
vn 0.000000 -0.749441 0.662071
vn 0.000000 -0.749441 0.662071
vn 0.000000 -0.749441 0.662071
vn 0.000000 0.749441 -0.662071
vn 0.000000 0.749441 -0.662071
vn -0.000000 0.749441 -0.662071
vn 0.000000 0.749441 -0.662071
vn 0.000000 0.749441 -0.662071
vn 0.000000 0.749441 -0.662071
vn 0.000000 0.749441 -0.662071
vn 0.000000 0.749441 -0.662071
vn 0.000000 0.749441 -0.662071
vn 0.000000 0.749441 -0.662071
vn 0.000000 0.749441 -0.662071
vn 0.000000 0.749441 -0.662071
vn 0.000000 0.749441 -0.662071
vn 0.000000 0.749441 -0.662071
vn 0.000000 0.749441 -0.662071
vn -0.000000 0.749441 -0.662071
s off
f 4/21/1 3/36/2 2/23/3 1/24/4
f 18/51/5 13/41/6 24/66/7 19/53/8
f 6/27/9 8/34/10 7/29/11 5/30/12
f 14/43/13 15/85/14 22/72/15 23/69/16
f 16/84/17 17/82/18 20/76/19 21/73/20
f 13/42/21 14/88/22 23/70/23 24/65/24
f 8/28/25 6/33/26 9/31/27 10/32/28
f 17/49/29 18/78/30 19/54/31 20/75/32
f 3/22/33 4/35/34 12/25/35 11/26/36
f 15/86/37 16/83/38 21/74/39 22/71/40
f 14/44/41 13/79/42 5/9/43 7/10/44
f 8/15/45 15/45/46 14/87/47 7/18/48
f 16/47/49 15/46/50 8/37/51 10/19/52
f 10/1/53 9/40/54 17/50/55 16/48/56
f 6/5/57 18/52/58 17/81/59 9/2/60
f 13/80/61 18/77/62 6/12/63 5/13/64
f 20/55/65 19/67/66 3/6/67 11/3/68
f 21/58/69 20/56/70 11/39/71 12/4/72
f 4/16/73 22/60/74 21/57/75 12/20/76
f 23/61/77 22/59/78 4/38/79 1/17/80
f 1/7/81 2/8/82 24/64/83 23/62/84
f 3/11/85 19/68/86 24/63/87 2/14/88
f 39/89/89 40/90/90 36/91/91 33/92/92
f 53/93/93 54/94/94 62/95/95 63/96/96
f 34/97/97 35/98/98 37/99/99 38/100/100
f 47/101/101 48/102/102 58/103/103 59/104/104
f 50/105/105 51/106/106 55/107/107 56/108/108
f 48/109/109 49/110/110 57/111/111 58/112/112
f 42/113/113 43/114/114 35/115/115 34/116/116
f 52/117/117 53/118/118 63/119/119 64/120/120
f 33/121/121 36/122/122 44/123/123 41/124/124
f 38/125/125 37/126/126 30/127/127 32/128/128
f 46/129/129 47/130/130 59/131/131 60/132/132
f 28/133/133 27/134/134 40/135/135 39/136/136
f 54/137/137 45/138/138 61/139/139 62/140/140
f 49/141/141 50/142/142 56/143/143 57/144/144
f 29/145/145 43/146/146 42/147/147 31/148/148
f 51/149/149 52/150/150 64/151/151 55/152/152
f 41/153/153 44/154/154 26/155/155 25/156/156
f 47/157/157 46/158/158 28/159/159 39/160/160
f 48/161/161 47/162/162 39/163/163 33/164/164
f 49/165/165 48/166/166 33/167/167 41/168/168
f 50/169/169 49/170/170 41/171/171 25/172/172
f 25/173/173 26/174/174 51/175/175 50/176/176
f 44/177/177 52/178/178 51/179/179 26/180/180
f 36/181/181 53/182/182 52/183/183 44/184/184
f 40/185/185 54/186/186 53/187/187 36/188/188
f 27/189/189 45/190/190 54/191/191 40/192/192
f 56/193/193 55/194/194 29/195/195 31/196/196
f 42/197/197 57/198/198 56/199/199 31/200/200
f 34/201/201 58/202/202 57/203/203 42/204/204
f 38/205/205 59/206/206 58/207/207 34/208/208
f 32/209/209 60/210/210 59/211/211 38/212/212
f 62/213/213 61/214/214 30/215/215 37/216/216
f 63/217/217 62/218/218 37/219/219 35/220/220
f 64/221/221 63/222/222 35/223/223 43/224/224
f 55/225/225 64/226/226 43/227/227 29/228/228
